<svg width="200" height="200" viewBox="0 0 200 200" fill="none" xmlns="http://www.w3.org/2000/svg">
<path d="M102.795 192.221C53.5753 192.221 13.5027 152.09 13.5027 102.799C13.5027 53.5078 53.5753 13.377 102.795 13.377C152.014 13.377 192.087 53.5078 192.087 102.799C192.087 152.09 152.014 192.221 102.795 192.221ZM102.795 14.4675C54.156 14.4675 14.5916 54.0894 14.5916 102.799C14.5916 151.509 54.156 191.13 102.795 191.13C151.434 191.13 190.998 151.509 190.998 102.799C190.998 54.0894 151.434 14.4675 102.795 14.4675ZM102.795 184.442C57.8584 184.442 21.2704 147.801 21.2704 102.799C21.2704 57.7972 57.8584 21.1559 102.795 21.1559C147.731 21.1559 184.319 57.7972 184.319 102.799C184.319 147.801 147.731 184.442 102.795 184.442ZM102.795 22.2465C58.4392 22.2465 22.3593 58.3788 22.3593 102.799C22.3593 147.219 58.4392 183.352 102.795 183.352C147.151 183.352 183.23 147.219 183.23 102.799C183.23 58.3788 147.151 22.2465 102.795 22.2465Z" fill="url(#paint0_linear_2_5)"/>
<path d="M102.795 167.721C67.078 167.721 37.9673 138.64 37.9673 102.799C37.9673 67.0302 67.0054 37.8771 102.795 37.8771C138.512 37.8771 167.622 66.9575 167.622 102.799C167.622 138.568 138.512 167.721 102.795 167.721ZM102.795 38.9676C67.6588 38.9676 39.0562 67.6118 39.0562 102.726C39.0562 137.913 67.6588 166.558 102.795 166.558C137.931 166.558 166.461 137.913 166.461 102.726C166.534 67.6118 137.931 38.9676 102.795 38.9676Z" fill="url(#paint1_linear_2_5)"/>
<path d="M169.365 102.799H162.831C162.831 69.6474 135.898 42.6754 102.795 42.6754V36.1323C139.528 36.1323 169.365 66.0124 169.365 102.799Z" fill="url(#paint2_linear_2_5)"/>
<path d="M102.795 183.352C102.432 183.352 102.069 183.352 101.706 183.352L101.779 180.08C102.142 180.08 102.505 180.08 102.867 180.08V183.352H102.795ZM105.844 183.279L105.699 180.007C106.062 180.007 106.425 180.007 106.788 179.935L106.933 183.206C106.57 183.279 106.207 183.279 105.844 183.279ZM97.2051 183.133C96.8421 183.133 96.4791 183.061 96.1161 183.061L96.4065 179.789C96.7695 179.789 97.1325 179.862 97.4954 179.862L97.2051 183.133ZM111.361 182.843L110.998 179.571C111.361 179.498 111.724 179.498 112.087 179.426L112.45 182.697C112.087 182.77 111.724 182.843 111.361 182.843ZM91.6878 182.552C91.3248 182.479 90.9618 182.479 90.5989 182.406L91.107 179.135C91.47 179.208 91.833 179.208 92.196 179.28L91.6878 182.552ZM116.878 182.116L116.298 178.917C116.661 178.844 117.024 178.771 117.314 178.699L117.895 181.897C117.604 181.97 117.241 182.043 116.878 182.116ZM86.2432 181.607C85.8802 181.534 85.5172 181.461 85.1542 181.389L85.8802 178.19C86.2432 178.262 86.6062 178.335 86.8965 178.408L86.2432 181.607ZM122.323 180.952L121.524 177.754C121.887 177.681 122.25 177.608 122.541 177.463L123.412 180.662C123.049 180.734 122.686 180.807 122.323 180.952ZM80.7985 180.298C80.4355 180.225 80.0725 180.08 79.7096 180.007L80.6533 176.881C81.0163 176.954 81.3067 177.099 81.6697 177.172L80.7985 180.298ZM127.695 179.426L126.679 176.3C127.042 176.154 127.332 176.081 127.695 175.936L128.784 179.062C128.348 179.135 128.058 179.28 127.695 179.426ZM75.4991 178.553C75.1361 178.408 74.7731 178.262 74.4828 178.19L75.6442 175.136C76.0072 175.282 76.2976 175.354 76.6606 175.5L75.4991 178.553ZM132.922 177.463L131.688 174.409C132.051 174.264 132.341 174.119 132.632 173.973L133.938 177.027C133.575 177.172 133.212 177.317 132.922 177.463ZM70.3448 176.445C69.9818 176.3 69.6914 176.154 69.3284 176.009L70.7078 173.028C70.9981 173.173 71.3611 173.319 71.6515 173.464L70.3448 176.445ZM137.931 175.209L136.479 172.228C136.769 172.083 137.132 171.937 137.423 171.719L138.875 174.627C138.657 174.918 138.294 175.064 137.931 175.209ZM65.3357 174.046C64.9728 173.9 64.6824 173.682 64.3194 173.537L65.9165 170.629C66.2069 170.774 66.5698 170.992 66.8602 171.138L65.3357 174.046ZM142.868 172.592L141.198 169.756C141.488 169.611 141.779 169.393 142.142 169.248L143.811 172.083C143.521 172.228 143.158 172.446 142.868 172.592ZM60.4719 171.283C60.1815 171.065 59.8185 170.92 59.5281 170.702L61.2704 167.939C61.5608 168.157 61.8511 168.302 62.1415 168.521L60.4719 171.283ZM147.586 169.684L145.771 166.994C146.062 166.776 146.352 166.558 146.642 166.412L148.53 169.102C148.167 169.248 147.877 169.466 147.586 169.684ZM55.8258 168.157C55.5354 167.939 55.245 167.721 54.9546 167.503L56.9146 164.885C57.205 165.104 57.4954 165.322 57.7858 165.54L55.8258 168.157ZM152.087 166.412L150.054 163.795C150.345 163.577 150.635 163.359 150.926 163.141L152.958 165.685C152.668 165.903 152.377 166.194 152.087 166.412ZM51.47 164.74C51.1796 164.522 50.8893 164.231 50.5989 164.013L52.7042 161.541C52.9945 161.759 53.2123 161.977 53.5027 162.196L51.47 164.74ZM156.37 162.85L154.192 160.378C154.483 160.16 154.701 159.869 154.991 159.651L157.241 162.05C156.878 162.341 156.661 162.559 156.37 162.85ZM47.3321 161.032C47.0417 160.742 46.8239 160.523 46.5335 160.233L48.8566 157.906C49.0744 158.124 49.3647 158.415 49.6551 158.633L47.3321 161.032ZM160.363 158.997L158.04 156.743C158.258 156.452 158.548 156.234 158.766 155.943L161.161 158.197C160.871 158.415 160.653 158.706 160.363 158.997ZM43.4119 157.034C43.1941 156.743 42.9038 156.452 42.686 156.234L45.1542 154.053C45.372 154.344 45.6624 154.562 45.8802 154.853L43.4119 157.034ZM164.138 154.853L161.67 152.744C161.887 152.454 162.105 152.236 162.323 151.945L164.864 154.053C164.573 154.271 164.356 154.562 164.138 154.853ZM39.7822 152.817C39.5644 152.526 39.3466 152.236 39.1288 151.945L41.7423 149.909C41.96 150.2 42.1778 150.491 42.3956 150.782L39.7822 152.817ZM167.55 150.491L164.936 148.528C165.154 148.237 165.372 147.946 165.59 147.655L168.276 149.546C167.985 149.836 167.768 150.2 167.55 150.491ZM36.5154 148.31C36.2976 148.019 36.0798 147.728 35.8621 147.365L38.548 145.547C38.7658 145.838 38.911 146.129 39.1288 146.419L36.5154 148.31ZM170.744 145.838L167.985 144.093C168.203 143.802 168.348 143.511 168.566 143.148L171.325 144.893C171.107 145.256 170.962 145.547 170.744 145.838ZM33.4664 143.657C33.2486 143.366 33.1034 143.003 32.8856 142.712L35.7168 141.112C35.862 141.403 36.0798 141.694 36.225 142.057L33.4664 143.657ZM173.575 141.04L170.672 139.513C170.817 139.222 171.034 138.859 171.18 138.568L174.083 140.095C173.938 140.385 173.72 140.749 173.575 141.04ZM30.853 138.713C30.7078 138.35 30.49 138.059 30.3448 137.695L33.3212 136.241C33.4664 136.532 33.6116 136.896 33.7568 137.186L30.853 138.713ZM176.044 136.023L173.067 134.642C173.212 134.351 173.358 133.988 173.503 133.697L176.479 135.005C176.334 135.369 176.189 135.732 176.044 136.023ZM28.5299 133.697C28.3847 133.333 28.2395 133.043 28.0943 132.679L31.1434 131.443C31.2885 131.807 31.4337 132.097 31.5789 132.461L28.5299 133.697ZM178.149 130.862L175.1 129.698C175.245 129.335 175.318 129.044 175.463 128.68L178.512 129.771C178.439 130.207 178.294 130.571 178.149 130.862ZM26.5698 128.462C26.4246 128.099 26.3521 127.735 26.2069 127.372L29.3285 126.354C29.4011 126.718 29.5462 127.008 29.6914 127.372L26.5698 128.462ZM179.964 125.554L176.842 124.609C176.915 124.246 177.06 123.955 177.132 123.591L180.254 124.464C180.181 124.9 180.036 125.264 179.964 125.554ZM24.9728 123.083C24.9002 122.719 24.755 122.356 24.6824 121.992L27.8765 121.192C27.9491 121.556 28.0217 121.919 28.1669 122.21L24.9728 123.083ZM181.343 120.174L178.149 119.447C178.221 119.084 178.294 118.72 178.367 118.43L181.561 119.084C181.488 119.447 181.416 119.811 181.343 120.174ZM23.7386 117.703C23.666 117.339 23.5934 116.976 23.5208 116.612L26.715 116.031C26.7876 116.394 26.8602 116.758 26.9328 117.048L23.7386 117.703ZM182.359 114.722L179.093 114.213C179.165 113.85 179.165 113.486 179.238 113.123L182.505 113.559C182.432 113.995 182.359 114.358 182.359 114.722ZM22.94 112.177C22.8675 111.814 22.8675 111.45 22.7949 111.087L26.0616 110.723C26.0616 111.087 26.1343 111.45 26.2069 111.814L22.94 112.177ZM182.94 109.197L179.673 108.906C179.673 108.542 179.746 108.179 179.746 107.815L183.013 108.033C183.013 108.397 183.013 108.833 182.94 109.197ZM22.5045 106.579C22.5045 106.216 22.5045 105.852 22.4319 105.489L25.6987 105.344C25.6987 105.707 25.6987 106.071 25.7713 106.434L22.5045 106.579ZM183.23 103.599H179.964V102.508H183.23V103.599ZM25.6987 101.127L22.4319 101.054C22.4319 100.691 22.4319 100.327 22.4319 99.9636L25.6987 100.109C25.6987 100.4 25.6987 100.763 25.6987 101.127ZM179.818 98.2188C179.818 97.8553 179.746 97.4918 179.746 97.1283L183.013 96.9102C183.013 97.2737 183.085 97.6372 183.085 98.0007L179.818 98.2188ZM25.9891 95.747L22.7223 95.4562C22.7223 95.0927 22.7949 94.7292 22.7949 94.3657L26.0616 94.7292C26.0616 95.0927 25.9891 95.3835 25.9891 95.747ZM179.31 92.9117C179.238 92.5482 179.238 92.1847 179.165 91.8212L182.432 91.385C182.505 91.7485 182.505 92.112 182.577 92.4755L179.31 92.9117ZM26.6424 90.4398L23.3757 89.9309C23.4483 89.5674 23.5208 89.2039 23.5934 88.8404L26.7876 89.422C26.7876 89.7855 26.715 90.0763 26.6424 90.4398ZM178.439 87.6045C178.367 87.241 178.294 86.8775 178.221 86.5867L181.416 85.9324C181.488 86.2959 181.561 86.6594 181.633 87.0229L178.439 87.6045ZM27.6588 85.2054L24.4645 84.4784C24.5371 84.1149 24.6097 83.7514 24.7549 83.3879L27.9491 84.1876C27.804 84.5511 27.7313 84.8419 27.6588 85.2054ZM177.205 82.4427C177.132 82.0792 176.987 81.7884 176.915 81.4249L180.036 80.4798C180.109 80.8433 180.254 81.2068 180.327 81.5703L177.205 82.4427ZM29.0381 80.0436L25.9165 79.0985C26.0617 78.735 26.1342 78.3715 26.2794 78.008L29.401 79.0258C29.2558 79.3893 29.1833 79.6801 29.0381 80.0436ZM175.608 77.281C175.463 76.9175 175.39 76.6267 175.245 76.2632L178.294 75.1C178.439 75.4635 178.512 75.827 178.657 76.1178L175.608 77.281ZM30.853 75.0273L27.804 73.864C27.9492 73.5005 28.0943 73.137 28.2395 72.8462L31.2885 74.0822C31.0707 74.3003 30.9256 74.6638 30.853 75.0273ZM173.721 72.3373C173.575 72.0465 173.43 71.683 173.285 71.3922L176.261 70.0836C176.407 70.4471 176.552 70.7379 176.697 71.1014L173.721 72.3373ZM32.9582 70.0836L29.9818 68.7023C30.127 68.3388 30.2722 68.048 30.49 67.6845L33.4664 69.1385C33.2486 69.4293 33.1034 69.7201 32.9582 70.0836ZM171.397 67.5391C171.252 67.2483 171.034 66.8848 170.889 66.594L173.793 65.0673C173.938 65.3581 174.156 65.7216 174.301 66.0851L171.397 67.5391ZM35.3538 65.2854L32.5226 63.6859C32.6678 63.3951 32.8856 63.0316 33.1034 62.7408L35.9346 64.4129C35.7168 64.7037 35.5716 64.9946 35.3538 65.2854ZM168.784 62.8862C168.566 62.5954 168.421 62.3046 168.203 62.0138L170.962 60.269C171.18 60.5598 171.325 60.9233 171.543 61.2141L168.784 62.8862ZM38.1125 60.7052L35.3538 58.8877C35.5716 58.5969 35.7894 58.2334 36.0072 57.9426L38.6933 59.7601C38.5481 60.1236 38.3303 60.4144 38.1125 60.7052ZM165.88 58.3788C165.662 58.088 165.445 57.7972 165.227 57.5064L167.84 55.6161C168.058 55.907 168.276 56.1977 168.494 56.4886L165.88 58.3788ZM41.2341 56.3431L38.6207 54.3802C38.8384 54.0894 39.0562 53.7986 39.274 53.5078L41.8874 55.5434C41.597 55.7615 41.3793 56.0523 41.2341 56.3431ZM162.686 54.1621C162.468 53.8713 162.25 53.5805 162.033 53.3624L164.573 51.2541C164.791 51.5449 165.082 51.8357 165.299 52.1265L162.686 54.1621ZM44.5735 52.1992L42.1052 50.0182C42.323 49.7274 42.6134 49.4366 42.8312 49.1458L45.2994 51.3268C45.009 51.6176 44.7913 51.9084 44.5735 52.1992ZM159.129 50.0909C158.911 49.8001 158.621 49.582 158.403 49.2912L160.799 47.0374C161.089 47.3283 161.307 47.5463 161.597 47.8371L159.129 50.0909ZM48.2032 48.2734L45.8802 45.9469C46.1706 45.6561 46.3884 45.438 46.6787 45.1472L48.9292 47.4737C48.7114 47.7645 48.421 47.9826 48.2032 48.2734ZM155.354 46.3104C155.064 46.0923 154.846 45.8015 154.555 45.5834L156.733 43.1843C157.024 43.4024 157.314 43.6932 157.532 43.9113L155.354 46.3104ZM52.1234 44.6383L49.9455 42.1665C50.2359 41.9484 50.5263 41.6576 50.8167 41.4395L52.9219 43.9113C52.6316 44.1294 52.3412 44.3475 52.1234 44.6383ZM151.361 42.8208C151.071 42.6027 150.78 42.3846 150.563 42.1665L152.595 39.622C152.886 39.8401 153.176 40.0582 153.466 40.349L151.361 42.8208ZM56.2613 41.2214L54.3012 38.6042C54.5916 38.3861 54.882 38.1679 55.1724 37.9498L57.1324 40.5671C56.842 40.7852 56.5517 41.0033 56.2613 41.2214ZM147.078 39.5493C146.788 39.3312 146.497 39.1131 146.207 38.9677L148.022 36.2777C148.312 36.4958 148.603 36.7139 148.965 36.932L147.078 39.5493ZM60.617 38.1679L58.8021 35.4053C59.0925 35.1872 59.4555 34.9691 59.7459 34.8237L61.4882 37.5863C61.1978 37.7317 60.9074 37.9498 60.617 38.1679ZM142.65 36.6412C142.359 36.4231 142.069 36.2777 141.706 36.0596L143.376 33.2243C143.666 33.4424 144.029 33.5878 144.319 33.8059L142.65 36.6412ZM65.1905 35.4053L63.5935 32.57C63.8838 32.4246 64.2468 32.2065 64.5372 32.0611L66.1343 34.9691C65.7713 35.0418 65.4809 35.1872 65.1905 35.4053ZM137.931 34.024C137.641 33.8786 137.278 33.7332 136.987 33.5151L138.439 30.6071C138.802 30.7525 139.093 30.9706 139.456 31.116L137.931 34.024ZM69.9092 32.9335L68.5299 29.9528C68.8929 29.8073 69.1833 29.662 69.5463 29.5165L70.9255 32.4973C70.5626 32.6427 70.1996 32.7881 69.9092 32.9335ZM133.14 31.7703C132.777 31.6249 132.486 31.4795 132.123 31.3341L133.357 28.2806C133.72 28.426 134.011 28.5714 134.374 28.7168L133.14 31.7703ZM74.7731 30.8252L73.6116 27.7717C73.9746 27.6263 74.3375 27.4809 74.6279 27.4082L75.7895 30.4617C75.4265 30.5344 75.1361 30.6798 74.7731 30.8252ZM128.131 29.8073C127.768 29.6619 127.477 29.5892 127.114 29.4438L128.131 26.3177C128.494 26.4631 128.857 26.5358 129.22 26.6812L128.131 29.8073ZM79.8548 29.0076L78.911 25.8815C79.274 25.7361 79.637 25.6634 80 25.5907L80.9437 28.7168C80.5082 28.8622 80.1452 28.9349 79.8548 29.0076ZM123.049 28.2079C122.686 28.1352 122.396 27.9898 122.033 27.9171L122.831 24.7183C123.194 24.791 123.557 24.9364 123.92 25.0091L123.049 28.2079ZM84.9364 27.6263L84.2105 24.4275C84.5735 24.3548 84.9365 24.2821 85.2994 24.2094L86.0254 27.4082C85.6624 27.4809 85.2994 27.5536 84.9364 27.6263ZM117.822 27.0447C117.459 26.972 117.096 26.8993 116.806 26.8266L117.387 23.6278C117.75 23.7005 118.113 23.7732 118.475 23.8459L117.822 27.0447ZM90.2359 26.5358L89.7278 23.337C90.0907 23.2643 90.4537 23.1916 90.8167 23.1916L91.3249 26.4631C90.8893 26.4631 90.5263 26.5358 90.2359 26.5358ZM112.523 26.1723C112.16 26.0996 111.797 26.0996 111.434 26.0269L111.797 22.7554C112.16 22.8281 112.523 22.8281 112.886 22.9008L112.523 26.1723ZM95.4628 25.8815L95.1724 22.61C95.5354 22.61 95.8984 22.5373 96.2613 22.5373L96.5517 25.8088C96.1887 25.8088 95.8258 25.8815 95.4628 25.8815ZM107.223 25.6634C106.86 25.6634 106.497 25.5907 106.134 25.5907L106.279 22.3192C106.642 22.3192 107.005 22.3192 107.368 22.3919L107.223 25.6634ZM100.835 25.5907L100.762 22.3192C101.125 22.3192 101.488 22.3192 101.851 22.3192V25.5907C101.561 25.518 101.198 25.5907 100.835 25.5907Z" fill="url(#paint3_linear_2_5)"/>
<path d="M9.0018 101.927C9.50997 50.5998 51.3249 9.01492 102.65 9.01492C102.94 9.01492 103.303 9.01492 103.593 9.01492V0C103.303 0 102.94 0 102.65 0C46.3158 0 0.508167 45.6561 0 101.927H9.0018Z" fill="url(#paint4_linear_2_5)"/>
<path d="M40.8711 42.3119L37.7495 39.2585C43.7023 33.1516 50.5263 27.8444 57.931 23.6278C61.9963 21.3013 66.3521 19.2657 70.7078 17.5936L72.2323 21.6649C68.0218 23.2643 63.9564 25.1545 60.0363 27.4082C52.9945 31.4795 46.5336 36.4958 40.8711 42.3119Z" fill="url(#paint5_linear_2_5)"/>
<path d="M106.642 200L106.352 192.366C106.715 192.366 107.078 192.366 107.368 192.294L107.731 199.927C107.441 200 107.078 200 106.642 200ZM112.305 199.636L111.579 192.003L112.595 191.93L113.394 199.564C113.103 199.564 112.74 199.636 112.305 199.636ZM117.967 198.909L116.806 191.349C117.169 191.276 117.459 191.203 117.822 191.203L119.129 198.764C118.693 198.837 118.33 198.837 117.967 198.909ZM123.557 197.892L121.887 190.403L122.904 190.185L124.646 197.674L123.557 197.892ZM129.074 196.51L126.969 189.168L127.985 188.877L130.163 196.22C129.8 196.292 129.437 196.365 129.074 196.51ZM134.446 194.838L131.978 187.641C132.341 187.495 132.632 187.423 132.995 187.277L135.535 194.475C135.172 194.547 134.809 194.693 134.446 194.838ZM139.746 192.803L136.842 185.751C137.132 185.605 137.495 185.46 137.786 185.314L140.762 192.366C140.472 192.512 140.109 192.657 139.746 192.803ZM144.973 190.476L141.633 183.57C141.924 183.424 142.287 183.279 142.577 183.133L145.989 189.967C145.626 190.113 145.263 190.331 144.973 190.476ZM149.982 187.859L146.28 181.17L147.223 180.662L150.998 187.277C150.635 187.495 150.272 187.641 149.982 187.859ZM154.846 184.951L150.78 178.481C151.071 178.262 151.361 178.117 151.652 177.899L155.862 184.297C155.499 184.515 155.136 184.733 154.846 184.951ZM159.564 181.752L155.064 175.573C155.354 175.354 155.644 175.136 155.935 174.991L160.508 181.17C160.145 181.316 159.855 181.534 159.564 181.752ZM163.993 178.335L159.201 172.374C159.492 172.156 159.71 171.937 160 171.719L164.864 177.608C164.646 177.826 164.356 178.044 163.993 178.335ZM168.348 174.627L163.194 168.957L163.993 168.23L169.22 173.828C168.857 174.118 168.639 174.337 168.348 174.627ZM172.414 170.629L166.969 165.322C167.187 165.104 167.477 164.813 167.695 164.595L173.212 169.902C172.922 170.12 172.632 170.411 172.414 170.629ZM176.261 166.485L170.526 161.469C170.744 161.178 170.962 160.96 171.18 160.669L176.987 165.613C176.697 165.903 176.479 166.194 176.261 166.485ZM179.819 162.05L173.793 157.397C174.011 157.107 174.229 156.816 174.446 156.598L180.544 161.178C180.327 161.469 180.036 161.759 179.819 162.05ZM183.158 157.47L176.842 153.181C177.06 152.89 177.205 152.599 177.423 152.308L183.811 156.525C183.593 156.816 183.376 157.179 183.158 157.47ZM186.207 152.672L179.673 148.746C179.819 148.455 180.036 148.164 180.182 147.873L186.788 151.727C186.642 152.017 186.425 152.308 186.207 152.672ZM189.038 147.655L182.287 144.093L182.795 143.148L189.619 146.638C189.328 147.001 189.183 147.365 189.038 147.655ZM191.506 142.566L184.537 139.44C184.682 139.149 184.828 138.786 184.973 138.495L191.942 141.549C191.797 141.839 191.652 142.203 191.506 142.566ZM193.684 137.332L186.57 134.642C186.715 134.278 186.788 133.988 186.933 133.624L194.12 136.241C193.902 136.605 193.829 136.968 193.684 137.332ZM195.499 131.952L188.24 129.626C188.312 129.262 188.457 128.971 188.53 128.608L195.862 130.789C195.789 131.225 195.644 131.589 195.499 131.952ZM197.096 126.427L189.691 124.609C189.764 124.246 189.837 123.955 189.909 123.591L197.314 125.336C197.241 125.7 197.169 126.063 197.096 126.427ZM198.258 120.901L190.78 119.447C190.853 119.084 190.926 118.793 190.998 118.43L198.548 119.738C198.403 120.174 198.33 120.538 198.258 120.901ZM199.201 115.304L191.652 114.358C191.724 113.995 191.724 113.631 191.797 113.341L199.419 114.213C199.274 114.504 199.201 114.867 199.201 115.304ZM199.71 109.633L192.087 109.124C192.087 108.76 192.16 108.397 192.16 108.106L199.782 108.542C199.782 108.833 199.782 109.269 199.71 109.633ZM200 103.962L192.378 103.889C192.378 103.526 192.378 103.162 192.378 102.872H200C200 103.162 200 103.526 200 103.962Z" fill="url(#paint6_linear_2_5)"/>
<path d="M16.9147 147.801C9.58256 133.988 5.58978 117.412 5.58978 101.127H11.0344C11.0344 116.539 14.8094 132.17 21.7059 145.184L16.9147 147.801Z" fill="url(#paint7_linear_2_5)"/>
<path d="M102.795 194.402C77.8221 194.402 54.4465 184.442 37.0236 166.412L40.9437 162.632C57.3503 179.644 79.274 188.949 102.795 188.949C123.485 188.949 143.521 181.461 159.201 167.794L162.759 171.937C146.134 186.405 124.864 194.402 102.795 194.402Z" fill="url(#paint8_linear_2_5)"/>
<path d="M177.132 156.161L172.704 152.963C183.303 138.277 188.82 120.901 188.82 102.799H194.265C194.265 122.065 188.312 140.531 177.132 156.161Z" fill="url(#paint9_linear_2_5)"/>
<path d="M196.298 102.799H195.209C195.209 88.4042 191.942 74.5911 185.626 61.723L186.57 61.2141C193.031 74.2276 196.298 88.1861 196.298 102.799Z" fill="url(#paint10_linear_2_5)"/>
<path d="M135.971 16.4304C125.372 12.3591 114.192 10.2508 102.795 10.2508V9.16031C114.338 9.16031 125.662 11.2686 136.407 15.4126L135.971 16.4304Z" fill="url(#paint11_linear_2_5)"/>
<path d="M177.495 65.4307C174.083 58.5242 169.728 52.1265 164.501 46.4558C155.862 36.932 144.973 29.4438 133.067 24.8637L135.027 19.7746C147.731 24.7183 159.347 32.6427 168.566 42.7481C174.083 48.855 178.73 55.6161 182.432 62.9589L177.495 65.4307Z" fill="url(#paint12_linear_2_5)"/>
<path d="M108.893 139.44H109.111V138.422H109.328V137.768H109.546V137.55H109.764V137.186H109.982V137.041H110.2V136.823H110.417V136.605H110.635V136.387H111.071V136.169H111.506V135.951H112.16V135.732H114.265V135.951H114.918V136.169H115.354V136.387H115.572V136.605H116.007V136.823H116.225V137.041H116.443V137.259H116.661V137.695H116.878V138.132H117.096V138.568H117.314V141.112H117.096V141.767H116.878V142.203H116.733V142.421H116.515V142.639H116.298V142.857H116.08V143.075H115.862V143.293H115.644V143.511H115.209V143.73H114.846V143.948H113.975V144.166H112.668V143.948H111.797V143.584H111.289V143.366H110.926V143.148H110.708V142.93H110.49V142.712H110.272V142.494H110.054V142.276H109.837V142.13H109.619V141.694H109.401V141.258H109.183V140.022H109.038V139.44H108.893ZM126.461 93.4933H126.243V94.5838H126.098V95.3108H125.88V95.9651H125.662V96.4013H125.445V97.0556H125.227V97.4918H125.009V97.7099H124.791V98.1461H124.573V98.5823H124.356V98.8004H124.211V99.2366H123.993V99.4547H123.775V99.6728H123.557V100.109H123.339V100.327H123.122V100.545H122.904V100.763H122.686V100.981H122.468V101.2H122.323V101.418H122.105V101.636H121.888V101.854H121.67V102.072H121.234V102.29H121.016V102.508H120.799V102.726H120.436V102.944H120.218V103.162H119.782V103.381H119.564V103.599H119.129V103.817H118.693V104.035H118.258V104.253H117.822V104.471H117.169V104.689H116.515V104.907H115.862V105.125H114.846V105.344H88.2033V105.562H86.3158V105.78H85.2995V105.998H84.4283V106.216H83.775V106.434H83.3394V106.652H82.9038V106.87H82.4683V107.088H82.0326V107.306H81.5971V107.525H81.3793V107.743H80.9438V107.961H80.6534V108.179H80.4356V108.397H80.2904V108.615H80.0726V108.833H79.8548V109.051H79.637V109.269H79.4193V109.487H79.2014V109.706H78.9837V110.142H78.6933V110.36H78.4755V110.796H78.3303V111.014H78.1126V111.45H77.8947V111.887H77.6769V112.323H77.4592V112.977H77.2414V113.631H77.0236V114.504H76.8058V115.376H76.588V116.83H76.3702V128.099H76.588V135.514H76.8058V141.258H77.0236V142.13H77.2414V142.784H77.4592V143.221H77.6769V143.657H77.8947V144.093H78.1126V144.529H78.3303V144.747H78.5481V144.965H78.7659V145.402H78.9837V145.62H79.2014V145.838H79.4193V146.056H79.637V146.274H79.8548V146.492H80.0726V146.71H80.5082V146.928H80.7259V147.146H80.9438V147.365H81.1615V147.583H81.5971V147.801H81.8149V148.019H82.2505V148.237H82.686V148.455H82.9038V148.673H83.3394V148.891H83.775V149.109H84.2105V149.328H84.8639V148.673H85.2995V148.891H85.735V149.109H86.3884V149.328H87.0417V149.546H87.6951V149.764H88.5662V149.982H89.2196V150.2H90.3086V150.418H91.3249V150.636H92.4138V150.854H93.8657V151.072H96.1162V151.29H104.392V151.072H106.715V150.854H108.385V150.636H109.691V150.418H110.708V150.127H111.797V149.909H112.668V149.691H113.321V149.473H114.192V149.255H114.846V149.037H115.499V148.819H115.935V148.673H116.588V148.455H117.024V148.237H117.459V148.019H117.895V147.801H118.33V147.583H118.766V147.365H118.984V147.219H119.419V147.001H119.637V146.783H120.073V146.565H120.29V146.347H120.508V146.129H120.726V145.911H120.944V145.692H121.162V145.474H121.379V145.256H121.597V145.038H121.815V144.82H122.033V144.602H122.25V144.166H122.468V143.948H122.686V143.584H122.904V143.148H123.122V142.494H123.339V141.839H123.557V129.553H100.472V126.136H135.826V125.918H136.915V125.7H137.786V125.482H138.439V125.264H138.875V125.045H139.31V124.827H139.746V124.609H140.181V124.391H140.617V124.173H141.053V123.955H141.27V123.737H141.706V123.519H141.924V123.301H142.142V123.228H142.359V123.01H142.795V122.792H143.013V122.574H143.23V122.356H143.448V122.137H143.666V121.919H143.884V121.774H144.102V121.338H144.319V121.12H144.537V120.901H144.755V120.683H144.973V120.247H145.191V120.029H145.408V119.593H145.626V119.375H145.844V118.939H146.062V118.502H146.28V118.139H146.497V117.703H146.715V117.266H146.933V116.83H147.151V116.176H147.368V115.74H147.586V115.085H147.804V114.504H147.223V113.631H147.441V112.759H147.659V111.741H147.877V110.651H148.094V109.197H148.312V107.016H148.53V99.382H148.312V97.1283H148.094V95.6743H147.877V94.4384H147.659V93.3479H147.441V92.4755H147.223V91.603H147.078V90.9487H146.86V90.0763H146.642V89.6401H146.425V89.0585H146.207V88.3315H145.989V87.8953H145.771V87.6045H145.554V87.1683H145.336V86.7321H145.191V86.2959H144.973V85.8597H144.755V85.6416H144.537V85.2054H144.319V84.9873H144.102V84.4784H143.884V84.2603H143.666V84.0422H143.448V83.6787H143.303V83.4606H143.085V83.2424H142.868V83.0243H142.65V82.8062H142.432V82.5154H142.214V82.2973H141.996V82.0792H141.779V81.8611H141.416V81.7157H141.198V81.4976H140.98V81.2795H140.544V81.0614H140.327V80.8433H139.891V80.5525H139.528V80.3344H139.093V80.3344H138.657V80.1163H138.004V79.9709H137.35V79.7528H136.479V79.5347H126.534V93.4933V93.4933H126.461Z" fill="url(#paint13_linear_2_5)"/>
<path d="M90.2359 68.8477V69.0658H90.0181V69.502H89.8729V69.9382H89.6551V70.1563H89.2196V70.4471H88.784V70.6652H88.2758V70.8833H88.058V71.1014H87.4047V71.3195H85.735V71.1014H85.0817V70.8833H84.4283V70.6652H84.2105V70.4471H83.7749V70.0109H83.5572V69.7928H83.1216V69.5747H82.9038V68.9204H82.686V68.4842H82.4682V68.2661H82.2505V65.6489H82.4682V65.0673H82.686V64.7038H82.9038V64.4857H83.1216V64.0494H83.3393V63.8313H83.5572V63.5405H84.0653V63.3224H84.5009V63.1043H84.9364V62.8862H85.1542V62.7408H86.1705V62.5227H87.0417V62.7408H87.9129V62.9589H88.5662V63.177H89.0018V63.6132H89.4374V63.8313H89.6551V64.0494H89.8729V64.4857H90.3085V65.14H90.5263V65.3581H90.7441V66.0124H90.9619V67.9026H90.7441V68.3388H90.5263V68.9931L90.2359 68.8477ZM94.519 55.6888V55.907H92.4137V56.1251H90.9619V56.3432H89.9455V56.5613H88.9292V56.7794H87.8403V57.0702H86.9691V57.2883H86.3158V57.5064H85.6624V57.7245H85.0091V57.9426H84.3557V58.1607H83.9201V58.3788H83.049V58.5969H82.5408V58.815H82.1778V59.0331H81.7423V59.2512H81.5245V59.4693H81.3067V59.6874H80.6533V60.1236H80V60.5598H79.7822V60.7779H79.3466V60.996H79.1289V61.2141H78.911V61.4322H78.6932V61.6503H78.4755V61.8684H78.3303V62.3046H77.8947V62.9589H77.4591V63.3951H77.2414V63.8313H77.0236V64.7038H76.8058V65.7216H76.588V77.4264H99.6007V80.7706H65.0453V80.9887H63.5935V81.2068H62.7223V81.4249H62.0689V81.6431H61.1978V81.8611H61.0526V82.0793H60.5444V82.2974H60.1089V82.5155H59.6733V82.7336H59.0925V83.1698H58.4391V83.606H58.0036V83.8241H57.7858V84.0422H57.3503V84.2603H57.205V84.4784H56.9147V84.9146H56.4791V85.1327H56.2613V85.3508H56.0435V85.787H55.8258V86.0051H55.6079V86.4413H55.245V87.0956H54.7368V87.7499H54.3012V88.1861H54.0834V88.8404H53.8657V89.2766H53.6479V89.7128H53.4301V89.9309H53.2849V90.3671H52.9945V91.2396H52.7767V91.8939H52.5589V92.5482H52.3412V93.2025H52.1234V94.0749H51.9056V94.9473H52.1234V95.9651H51.9056V97.2737H51.7604V98.9458H51.47V102.217H51.2522V105.416H51.47V109.124H51.7604V110.796H51.9782V112.25H52.196V113.268H52.4138V114.358H52.6316V115.231H52.8493V116.103H53.0671V116.758H53.2849V117.412H53.5027V118.284H53.7205V118.502H53.9383V118.939H54.1561V119.811H54.3738V119.593H54.5916V120.029H54.8094V120.247H55.0272V120.465H55.245V121.12H55.4628V121.338H55.6805V121.556H55.8983V121.992H56.1161V122.428H56.5517V122.864H56.7695V123.083H56.9873V123.301H57.205V123.737H57.4228V123.955H57.6406V124.173H58.0762V124.391H58.294V124.609H58.5118V124.827H58.9473V125.264H59.3829V125.482H59.6007V125.7H60.254V125.918H60.4719V126.136H60.6896V126.354H61.5607V126.572H61.9237V126.79H62.5771V126.863H63.0127V127.081H64.1016V127.299H73.3938V113.268H73.6116V112.177H73.8294V111.523H74.0471V110.869H74.2649V110.214H74.4828V109.778H74.7005V109.342H74.6279V108.906H74.8457V108.688H75.0635V108.542H75.2813V107.961H75.7169V107.525H75.9346V107.088H76.3702V106.87H76.588V106.507H76.8058V106.289H77.0236V106.071H77.2414V105.852H77.4591V105.634H77.6769V105.416H77.8947V105.198H78.1125V104.98H78.5481V104.544H78.7659V104.326H79.4192V103.89H79.8548V103.599H80.0726V103.381H80.7259V103.162H81.1615V102.944H81.5971V102.872H82.0326V102.654H82.2505V102.435H83.1216V102.217H83.5572V101.999H84.2105V101.708H85.2994V101.49H112.16V101.272H113.829V101.054H114.918V100.909H115.789V100.691H116.225V100.473H117.096V100.254H117.314V100.036H117.75V99.8183H118.403V99.6002H118.621V99.382H119.056V98.9458H119.492V98.7277H119.71V98.5096H120.145V98.2915H120.363V97.7826H120.581V97.5645H120.799V97.1283H121.016V96.9829H121.234V96.7648H121.452V96.3286H121.67V96.3286H121.887V96.0378H122.105V95.6016H122.323V94.7292H122.541V94.293H122.759V93.6387H122.976V92.7663H123.194V91.9666H123.412V90.5125H123.63V79.0985H123.412V71.6103H123.194V66.0851H122.976V65.2127H122.831V64.6311H122.613V64.1948H122.396V63.7586H122.178V63.1043H121.96V62.8862H121.742V62.45H121.307V62.1592H121.089V61.9411H120.944V61.6503H120.726V61.4322H120.508V61.2141H120.29V60.996H120.073V60.8506H119.637V60.4144H119.201V60.1963H118.766V59.6874H118.112V59.2512H117.677V59.0331H117.024V58.8877H116.588V58.6696H116.152V58.5242H115.717V58.3061H115.499V58.088H114.628V57.7972H114.41V57.5791H113.539V57.361H112.886V57.1429H112.232V57.0702H111.361V56.8521H110.49V56.634H109.474V56.4159H108.385V56.1978H107.078V55.907H105.191V55.6888H101.851V55.4707H98.4392V55.6888H94.519V55.6888Z" fill="url(#paint14_linear_2_5)"/>
<defs>
<linearGradient id="paint0_linear_2_5" x1="13.5163" y1="102.815" x2="192.058" y2="102.815" gradientUnits="userSpaceOnUse">
<stop stop-color="#FFF24F" stop-opacity="0"/>
<stop offset="0.0351" stop-color="#FBE748"/>
<stop offset="0.1137" stop-color="#F4D43B"/>
<stop offset="0.1946" stop-color="#F0C933"/>
<stop offset="0.2809" stop-color="#EFC531"/>
<stop offset="0.6685" stop-color="#DB8E46"/>
<stop offset="0.8876" stop-color="#D16841"/>
<stop offset="1" stop-color="#C9403C"/>
</linearGradient>
<linearGradient id="paint1_linear_2_5" x1="37.9772" y1="102.81" x2="167.601" y2="102.81" gradientUnits="userSpaceOnUse">
<stop stop-color="#FFF24F" stop-opacity="0"/>
<stop offset="0.0351" stop-color="#FBE748"/>
<stop offset="0.1137" stop-color="#F4D43B"/>
<stop offset="0.1946" stop-color="#F0C933"/>
<stop offset="0.2809" stop-color="#EFC531"/>
<stop offset="0.6685" stop-color="#DB8E46"/>
<stop offset="0.8876" stop-color="#D16841"/>
<stop offset="1" stop-color="#C9403C"/>
</linearGradient>
<linearGradient id="paint2_linear_2_5" x1="102.8" y1="69.4715" x2="169.354" y2="69.4715" gradientUnits="userSpaceOnUse">
<stop stop-color="#FFF24F" stop-opacity="0"/>
<stop offset="0.0351" stop-color="#FBE748"/>
<stop offset="0.1137" stop-color="#F4D43B"/>
<stop offset="0.1946" stop-color="#F0C933"/>
<stop offset="0.2809" stop-color="#EFC531"/>
<stop offset="0.6685" stop-color="#DB8E46"/>
<stop offset="0.8876" stop-color="#D16841"/>
<stop offset="1" stop-color="#C9403C"/>
</linearGradient>
<linearGradient id="paint3_linear_2_5" x1="22.4442" y1="102.849" x2="183.204" y2="102.849" gradientUnits="userSpaceOnUse">
<stop stop-color="#FFF24F" stop-opacity="0"/>
<stop offset="0.0351" stop-color="#FBE748"/>
<stop offset="0.1137" stop-color="#F4D43B"/>
<stop offset="0.1946" stop-color="#F0C933"/>
<stop offset="0.2809" stop-color="#EFC531"/>
<stop offset="0.6685" stop-color="#DB8E46"/>
<stop offset="0.8876" stop-color="#D16841"/>
<stop offset="1" stop-color="#C9403C"/>
</linearGradient>
<linearGradient id="paint4_linear_2_5" x1="0.0079079" y1="50.9722" x2="103.577" y2="50.9722" gradientUnits="userSpaceOnUse">
<stop stop-color="#FFF24F" stop-opacity="0"/>
<stop offset="0.0351" stop-color="#FBE748"/>
<stop offset="0.1137" stop-color="#F4D43B"/>
<stop offset="0.1946" stop-color="#F0C933"/>
<stop offset="0.2809" stop-color="#EFC531"/>
<stop offset="0.6685" stop-color="#DB8E46"/>
<stop offset="0.8876" stop-color="#D16841"/>
<stop offset="1" stop-color="#C9403C"/>
</linearGradient>
<linearGradient id="paint5_linear_2_5" x1="37.7522" y1="29.9549" x2="72.2267" y2="29.9549" gradientUnits="userSpaceOnUse">
<stop stop-color="#FFF24F" stop-opacity="0"/>
<stop offset="0.0351" stop-color="#FBE748"/>
<stop offset="0.1137" stop-color="#F4D43B"/>
<stop offset="0.1946" stop-color="#F0C933"/>
<stop offset="0.2809" stop-color="#EFC531"/>
<stop offset="0.6685" stop-color="#DB8E46"/>
<stop offset="0.8876" stop-color="#D16841"/>
<stop offset="1" stop-color="#C9403C"/>
</linearGradient>
<linearGradient id="paint6_linear_2_5" x1="106.359" y1="151.444" x2="199.985" y2="151.444" gradientUnits="userSpaceOnUse">
<stop stop-color="#FFF24F" stop-opacity="0"/>
<stop offset="0.0351" stop-color="#FBE748"/>
<stop offset="0.1137" stop-color="#F4D43B"/>
<stop offset="0.1946" stop-color="#F0C933"/>
<stop offset="0.2809" stop-color="#EFC531"/>
<stop offset="0.6685" stop-color="#DB8E46"/>
<stop offset="0.8876" stop-color="#D16841"/>
<stop offset="1" stop-color="#C9403C"/>
</linearGradient>
<linearGradient id="paint7_linear_2_5" x1="5.59101" y1="124.468" x2="21.7033" y2="124.468" gradientUnits="userSpaceOnUse">
<stop stop-color="#FFF24F" stop-opacity="0"/>
<stop offset="0.0351" stop-color="#FBE748"/>
<stop offset="0.1137" stop-color="#F4D43B"/>
<stop offset="0.1946" stop-color="#F0C933"/>
<stop offset="0.2809" stop-color="#EFC531"/>
<stop offset="0.6685" stop-color="#DB8E46"/>
<stop offset="0.8876" stop-color="#D16841"/>
<stop offset="1" stop-color="#C9403C"/>
</linearGradient>
<linearGradient id="paint8_linear_2_5" x1="37.0332" y1="178.52" x2="162.738" y2="178.52" gradientUnits="userSpaceOnUse">
<stop stop-color="#FFF24F" stop-opacity="0"/>
<stop offset="0.0351" stop-color="#FBE748"/>
<stop offset="0.1137" stop-color="#F4D43B"/>
<stop offset="0.1946" stop-color="#F0C933"/>
<stop offset="0.2809" stop-color="#EFC531"/>
<stop offset="0.6685" stop-color="#DB8E46"/>
<stop offset="0.8876" stop-color="#D16841"/>
<stop offset="1" stop-color="#C9403C"/>
</linearGradient>
<linearGradient id="paint9_linear_2_5" x1="172.706" y1="129.485" x2="194.261" y2="129.485" gradientUnits="userSpaceOnUse">
<stop stop-color="#FFF24F" stop-opacity="0"/>
<stop offset="0.0351" stop-color="#FBE748"/>
<stop offset="0.1137" stop-color="#F4D43B"/>
<stop offset="0.1946" stop-color="#F0C933"/>
<stop offset="0.2809" stop-color="#EFC531"/>
<stop offset="0.6685" stop-color="#DB8E46"/>
<stop offset="0.8876" stop-color="#D16841"/>
<stop offset="1" stop-color="#C9403C"/>
</linearGradient>
<linearGradient id="paint10_linear_2_5" x1="185.627" y1="82.0102" x2="196.296" y2="82.0102" gradientUnits="userSpaceOnUse">
<stop stop-color="#FFF24F" stop-opacity="0"/>
<stop offset="0.0351" stop-color="#FBE748"/>
<stop offset="0.1137" stop-color="#F4D43B"/>
<stop offset="0.1946" stop-color="#F0C933"/>
<stop offset="0.2809" stop-color="#EFC531"/>
<stop offset="0.6685" stop-color="#DB8E46"/>
<stop offset="0.8876" stop-color="#D16841"/>
<stop offset="1" stop-color="#C9403C"/>
</linearGradient>
<linearGradient id="paint11_linear_2_5" x1="102.797" y1="12.796" x2="136.401" y2="12.796" gradientUnits="userSpaceOnUse">
<stop stop-color="#FFF24F" stop-opacity="0"/>
<stop offset="0.0351" stop-color="#FBE748"/>
<stop offset="0.1137" stop-color="#F4D43B"/>
<stop offset="0.1946" stop-color="#F0C933"/>
<stop offset="0.2809" stop-color="#EFC531"/>
<stop offset="0.6685" stop-color="#DB8E46"/>
<stop offset="0.8876" stop-color="#D16841"/>
<stop offset="1" stop-color="#C9403C"/>
</linearGradient>
<linearGradient id="paint12_linear_2_5" x1="133.071" y1="42.6067" x2="182.424" y2="42.6067" gradientUnits="userSpaceOnUse">
<stop stop-color="#FFF24F" stop-opacity="0"/>
<stop offset="0.0351" stop-color="#FBE748"/>
<stop offset="0.1137" stop-color="#F4D43B"/>
<stop offset="0.1946" stop-color="#F0C933"/>
<stop offset="0.2809" stop-color="#EFC531"/>
<stop offset="0.6685" stop-color="#DB8E46"/>
<stop offset="0.8876" stop-color="#D16841"/>
<stop offset="1" stop-color="#C9403C"/>
</linearGradient>
<linearGradient id="paint13_linear_2_5" x1="76.3757" y1="115.419" x2="148.518" y2="115.419" gradientUnits="userSpaceOnUse">
<stop stop-color="#FFF24F" stop-opacity="0"/>
<stop offset="0.0351" stop-color="#FBE748"/>
<stop offset="0.1137" stop-color="#F4D43B"/>
<stop offset="0.1946" stop-color="#F0C933"/>
<stop offset="0.2809" stop-color="#EFC531"/>
<stop offset="0.6685" stop-color="#DB8E46"/>
<stop offset="0.8876" stop-color="#D16841"/>
<stop offset="1" stop-color="#C9403C"/>
</linearGradient>
<linearGradient id="paint14_linear_2_5" x1="51.2578" y1="91.3912" x2="123.618" y2="91.3912" gradientUnits="userSpaceOnUse">
<stop stop-color="#FFF24F" stop-opacity="0"/>
<stop offset="0.0351" stop-color="#FBE748"/>
<stop offset="0.1137" stop-color="#F4D43B"/>
<stop offset="0.1946" stop-color="#F0C933"/>
<stop offset="0.2809" stop-color="#EFC531"/>
<stop offset="0.6685" stop-color="#DB8E46"/>
<stop offset="0.8876" stop-color="#D16841"/>
<stop offset="1" stop-color="#C9403C"/>
</linearGradient>
</defs>
</svg>
